<?xml version="1.0" encoding="UTF-8" standalone="no"?>
<!-- Created with Inkscape (http://www.inkscape.org/) -->

<svg
   xmlns:dc="http://purl.org/dc/elements/1.1/"
   xmlns:cc="http://creativecommons.org/ns#"
   xmlns:rdf="http://www.w3.org/1999/02/22-rdf-syntax-ns#"
   xmlns:svg="http://www.w3.org/2000/svg"
   xmlns="http://www.w3.org/2000/svg"
   xmlns:xlink="http://www.w3.org/1999/xlink"
   xmlns:sodipodi="http://sodipodi.sourceforge.net/DTD/sodipodi-0.dtd"
   xmlns:inkscape="http://www.inkscape.org/namespaces/inkscape"
   width="772.75"
   height="360.125"
   id="svg2"
   version="1.1"
   inkscape:version="0.48.3.1 r9886"
   sodipodi:docname="path.svg"
   inkscape:export-filename="/home/rpinson/dev/augeas-talks/img/path.png"
   inkscape:export-xdpi="349.39999"
   inkscape:export-ydpi="349.39999">
  <title
     id="title7414">Buildings</title>
  <sodipodi:namedview
     id="base"
     pagecolor="#ffffff"
     bordercolor="#666666"
     borderopacity="1.0"
     inkscape:pageopacity="0.0"
     inkscape:pageshadow="2"
     inkscape:zoom="0.36106035"
     inkscape:cx="497.13151"
     inkscape:cy="436.60806"
     inkscape:document-units="px"
     inkscape:current-layer="layer1"
     showgrid="false"
     inkscape:window-width="959"
     inkscape:window-height="744"
     inkscape:window-x="65"
     inkscape:window-y="24"
     inkscape:window-maximized="1"
     inkscape:snap-global="false"
     fit-margin-top="0"
     fit-margin-left="0"
     fit-margin-right="0"
     fit-margin-bottom="0" />
  <defs
     id="defs4">
    <linearGradient
       id="linearGradient3192"
       inkscape:collect="always">
      <stop
         id="stop3194"
         offset="0"
         style="stop-color:#633d01;stop-opacity:1" />
      <stop
         id="stop3196"
         offset="1"
         style="stop-color:#8f5902;stop-opacity:1" />
    </linearGradient>
    <linearGradient
       id="linearGradient3184">
      <stop
         id="stop3186"
         offset="0"
         style="stop-color:#316004;stop-opacity:1" />
      <stop
         id="stop3188"
         offset="1"
         style="stop-color:#4e9a06;stop-opacity:1" />
    </linearGradient>
    <linearGradient
       id="linearGradient2963"
       inkscape:collect="always">
      <stop
         id="stop2965"
         offset="0"
         style="stop-color:#eed2a2;stop-opacity:1" />
      <stop
         id="stop2967"
         offset="1"
         style="stop-color:#e9b96e;stop-opacity:1" />
    </linearGradient>
    <linearGradient
       id="linearGradient2955">
      <stop
         id="stop2957"
         offset="0"
         style="stop-color:#8ae234;stop-opacity:1" />
      <stop
         id="stop2959"
         offset="1"
         style="stop-color:#4e9a06;stop-opacity:1" />
    </linearGradient>
    <linearGradient
       gradientUnits="userSpaceOnUse"
       y2="495.25"
       x2="564.67529"
       y1="855.375"
       x1="131.82697"
       id="linearGradient2961"
       xlink:href="#linearGradient2955"
       inkscape:collect="always" />
    <linearGradient
       gradientUnits="userSpaceOnUse"
       y2="511.12054"
       x2="483.86307"
       y1="829.11847"
       x1="131.31982"
       id="linearGradient2969"
       xlink:href="#linearGradient2963"
       inkscape:collect="always" />
    <linearGradient
       y2="517.75903"
       x2="326.71381"
       y1="628.71631"
       x1="326.71381"
       gradientTransform="matrix(0.57689443,0,0,0.73828359,158.19899,155.01684)"
       gradientUnits="userSpaceOnUse"
       id="linearGradient4338"
       xlink:href="#linearGradient3192"
       inkscape:collect="always" />
    <linearGradient
       y2="509.5831"
       x2="351.03427"
       y1="565.81464"
       x1="330.2583"
       gradientTransform="matrix(1,0,0,0.93328067,0.90747961,42.288169)"
       gradientUnits="userSpaceOnUse"
       id="linearGradient4340"
       xlink:href="#linearGradient3184"
       inkscape:collect="always" />
    <linearGradient
       inkscape:collect="always"
       xlink:href="#linearGradient3184"
       id="linearGradient6424"
       gradientUnits="userSpaceOnUse"
       x1="435.7041"
       y1="782.85449"
       x2="441.47925"
       y2="741.78668" />
    <linearGradient
       id="linearGradient3184-34">
      <stop
         id="stop3186-78"
         offset="0"
         style="stop-color:#316004;stop-opacity:1" />
      <stop
         id="stop3188-81"
         offset="1"
         style="stop-color:#4e9a06;stop-opacity:1" />
    </linearGradient>
    <linearGradient
       gradientTransform="translate(22.458988,-19.250562)"
       y2="741.1134"
       x2="446.93359"
       y1="787.98798"
       x1="446.93359"
       gradientUnits="userSpaceOnUse"
       id="linearGradient6443"
       xlink:href="#linearGradient3184-34"
       inkscape:collect="always" />
    <linearGradient
       id="linearGradient3184-76">
      <stop
         id="stop3186-1"
         offset="0"
         style="stop-color:#316004;stop-opacity:1" />
      <stop
         id="stop3188-72"
         offset="1"
         style="stop-color:#4e9a06;stop-opacity:1" />
    </linearGradient>
    <linearGradient
       gradientTransform="matrix(-0.13187078,-0.57971043,1.325859,-0.09199784,-451.87374,1087.2924)"
       y2="768.27472"
       x2="465.78595"
       y1="784.00208"
       x1="391.87964"
       gradientUnits="userSpaceOnUse"
       id="linearGradient6443-3"
       xlink:href="#linearGradient3184-76"
       inkscape:collect="always" />
    <linearGradient
       id="linearGradient3184-76-5">
      <stop
         id="stop3186-1-8"
         offset="0"
         style="stop-color:#316004;stop-opacity:1" />
      <stop
         id="stop3188-72-5"
         offset="1"
         style="stop-color:#4e9a06;stop-opacity:1" />
    </linearGradient>
    <linearGradient
       y2="768.27472"
       x2="465.78595"
       y1="784.00208"
       x1="391.87964"
       gradientTransform="matrix(-0.18164966,-0.60714795,1.8263473,-0.09635207,-1177.9975,1029.1114)"
       gradientUnits="userSpaceOnUse"
       id="linearGradient6500"
       xlink:href="#linearGradient3184-76-5"
       inkscape:collect="always" />
    <linearGradient
       id="linearGradient3184-34-3">
      <stop
         id="stop3186-78-3"
         offset="0"
         style="stop-color:#316004;stop-opacity:1" />
      <stop
         id="stop3188-81-1"
         offset="1"
         style="stop-color:#4e9a06;stop-opacity:1" />
    </linearGradient>
    <linearGradient
       y2="741.1134"
       x2="446.93359"
       y1="787.98798"
       x1="446.93359"
       gradientTransform="matrix(0.54330712,0,0,0.520871,258.33378,139.81938)"
       gradientUnits="userSpaceOnUse"
       id="linearGradient6538"
       xlink:href="#linearGradient3184-34-3"
       inkscape:collect="always" />
    <linearGradient
       id="linearGradient3184-34-0">
      <stop
         id="stop3186-78-9"
         offset="0"
         style="stop-color:#316004;stop-opacity:1" />
      <stop
         id="stop3188-81-2"
         offset="1"
         style="stop-color:#4e9a06;stop-opacity:1" />
    </linearGradient>
    <linearGradient
       y2="741.1134"
       x2="446.93359"
       y1="787.98798"
       x1="446.93359"
       gradientTransform="matrix(-0.66929136,0,0,0.589318,829.80227,93.584195)"
       gradientUnits="userSpaceOnUse"
       id="linearGradient6538-4"
       xlink:href="#linearGradient3184-34-0"
       inkscape:collect="always" />
    <linearGradient
       id="linearGradient3184-5">
      <stop
         id="stop3186-73"
         offset="0"
         style="stop-color:#316004;stop-opacity:1" />
      <stop
         id="stop3188-3"
         offset="1"
         style="stop-color:#4e9a06;stop-opacity:1" />
    </linearGradient>
    <linearGradient
       id="linearGradient3184-76-2">
      <stop
         id="stop3186-1-0"
         offset="0"
         style="stop-color:#316004;stop-opacity:1" />
      <stop
         id="stop3188-72-1"
         offset="1"
         style="stop-color:#4e9a06;stop-opacity:1" />
    </linearGradient>
    <linearGradient
       id="linearGradient3184-76-2-7">
      <stop
         id="stop3186-1-0-0"
         offset="0"
         style="stop-color:#316004;stop-opacity:1" />
      <stop
         id="stop3188-72-1-2"
         offset="1"
         style="stop-color:#4e9a06;stop-opacity:1" />
    </linearGradient>
    <linearGradient
       y2="768.27472"
       x2="465.78595"
       y1="784.00208"
       x1="391.87964"
       gradientTransform="matrix(-0.08718911,-0.49739787,0.8766192,-0.07893515,-350.64675,915.89987)"
       gradientUnits="userSpaceOnUse"
       id="linearGradient6671"
       xlink:href="#linearGradient3184-76-2-7"
       inkscape:collect="always" />
  </defs>
  <metadata
     id="metadata7">
    <rdf:RDF>
      <cc:Work
         rdf:about="">
        <dc:format>image/svg+xml</dc:format>
        <dc:type
           rdf:resource="http://purl.org/dc/dcmitype/StillImage" />
        <dc:title>Buildings</dc:title>
        <dc:date>2010-02-14</dc:date>
        <dc:creator>
          <cc:Agent>
            <dc:title>Jean-Victor Balin</dc:title>
          </cc:Agent>
        </dc:creator>
        <dc:language>fr-FR</dc:language>
        <dc:subject>
          <rdf:Bag>
            <rdf:li>buildings</rdf:li>
            <rdf:li>enterprise</rdf:li>
            <rdf:li>landscape</rdf:li>
          </rdf:Bag>
        </dc:subject>
        <dc:description>jean.victor.balin@gmail.com</dc:description>
        <cc:license
           rdf:resource="http://creativecommons.org/licenses/publicdomain/" />
      </cc:Work>
      <cc:License
         rdf:about="http://creativecommons.org/licenses/publicdomain/">
        <cc:permits
           rdf:resource="http://creativecommons.org/ns#Reproduction" />
        <cc:permits
           rdf:resource="http://creativecommons.org/ns#Distribution" />
        <cc:permits
           rdf:resource="http://creativecommons.org/ns#DerivativeWorks" />
      </cc:License>
    </rdf:RDF>
  </metadata>
  <g
     id="layer1"
     inkscape:groupmode="layer"
     inkscape:label="Calque 1"
     transform="translate(-27.78125,-495.25)">
    <path
       id="path2858"
       d="m 332.34375,495.25 c -168.2044,0 -304.5625,56.98688 -304.5625,127.28125 0,22.6615 14.190008,43.94331 39.03125,62.375 -16.581757,15.33712 -25.90625,32.5778 -25.90625,50.78125 0,64.15756 115.55238,116.15625 258.09375,116.15625 33.30322,0 65.14778,-2.86149 94.375,-8.03125 33.12575,7.39436 70.35111,11.5625 109.6875,11.5625 138.35718,0 250.5,-51.33553 250.5,-114.65625 l 0,-0.0625 c -0.006,-5.56293 -0.88319,-11.02416 -2.5625,-16.375 31.01677,-23.35898 49.53125,-52.91287 49.53125,-85.0625 l 0,-0.0937 c -0.0668,-75.56611 -102.466,-136.7813 -228.78125,-136.7813 -30.59777,0 -59.79131,3.60561 -86.46875,10.125 C 440.33026,501.53708 388.09731,495.25 332.34375,495.25 z"
       style="fill:url(#linearGradient2961);fill-opacity:1;fill-rule:nonzero;stroke:none"
       inkscape:export-filename="/home/rpinson/dev/augeas-talks/img/path.png"
       inkscape:export-xdpi="349.39999"
       inkscape:export-ydpi="349.39999"
       inkscape:connector-curvature="0" />
    <path
       sodipodi:nodetypes="ccccccccccc"
       id="path2924"
       d="m 491.64732,511.12054 c -12.37502,1.18521 -25.58171,6.5878 -35.37621,15.08095 -9.98159,8.65538 -16.4194,20.52051 -14.82172,34.40273 1.75709,8.17806 8.25411,15.13416 16.97843,20.97192 7.20002,4.81779 15.91703,8.87389 24.73873,12.22653 9.21357,3.50158 18.54133,6.23582 26.37427,8.26907 13.5509,3.55172 25.43042,6.9768 35.76237,10.28076 14.52986,4.64638 25.99912,9.05321 34.75213,13.23585 20.13402,9.62108 25.89613,18.05592 21.47751,25.49131 -3.86858,6.50984 -15.54106,12.25355 -32.20465,17.3565 -10.34846,3.16903 -22.62182,6.09095 -36.14641,8.79576 -11.45629,2.29116 -23.81037,4.42655 -36.65278,6.42441 -11.96747,1.86174 -24.359,3.60405 -36.84323,5.2417 -12.32719,1.61705 -24.74477,3.13205 -36.93373,4.55923 -12.69458,1.48637 -25.14119,2.87747 -36.97947,4.18936 -13.26002,1.46944 -25.75682,2.83951 -36.98397,4.13276 -14.94983,1.72208 -27.64845,3.30795 -36.90019,4.81092 -11.75366,2.10387 -23.60426,4.99619 -35.40012,8.55864 -11.53321,3.48313 -23.01409,7.60688 -34.30086,12.26069 -11.24729,4.63753 -22.30184,9.8014 -33.02334,15.3822 -10.91004,5.67894 -21.47522,11.7896 -31.54771,18.21667 -10.50894,6.70557 -20.48157,13.75557 -29.75,21.01907 -9.99627,7.83388 -19.17339,15.91611 -27.32075,24.08239 -11.43352,11.61498 -11.16719,23.00536 -5.18765,31.8463 6.14155,9.08048 18.31011,15.47149 30.0191,16.654 10.92779,0.37969 21.11815,-3.84023 30.25835,-9.80029 9.43383,-6.15152 17.74897,-14.15679 24.60159,-20.87181 7.58324,-8.89774 15.18461,-17.23553 22.97407,-25.0217 8.15907,-8.15562 16.5245,-15.70604 25.29165,-22.66086 8.84738,-7.01846 18.10385,-13.43038 27.97016,-19.2456 9.50233,-5.60069 19.57033,-10.64789 30.38334,-15.15043 10.0104,-4.16834 20.65931,-7.86986 32.08904,-11.11156 7.89037,-2.96396 21.44798,-6.02496 38.52185,-9.28078 11.61434,-2.21474 24.85574,-4.51963 39.04715,-6.94544 12.45256,-2.12857 25.63658,-4.35025 39.09463,-6.68583 12.8927,-2.23746 26.03688,-4.57944 39.03039,-7.04424 13.25115,-2.51366 26.34559,-5.15506 38.85675,-7.94356 13.70137,-3.05378 26.7032,-6.284 38.44523,-9.71612 14.70524,-4.29825 27.43461,-8.91315 37.08764,-13.89474 16.9205,-8.73208 24.38883,-18.5908 16.47814,-29.84557 -4.78311,-6.80507 -15.18863,-14.12053 -32.52667,-22.00591 -9.96685,-4.53295 -22.22461,-9.25423 -37.02215,-14.17517 -11.44008,-3.4 -22.43552,-6.06311 -32.78062,-8.77299 -11.67297,-3.05771 -22.51793,-6.17498 -32.23939,-10.47764 -10.55173,-4.67013 -19.77985,-10.73678 -27.30647,-19.63958 -7.23258,-10.68893 -5.10074,-22.43431 1.35468,-32.31086 6.31975,-9.66899 16.78326,-17.54689 26.66089,-20.88904 0,0 0,0 0,0"
       style="fill:url(#linearGradient2969);fill-opacity:1;fill-rule:nonzero;stroke:none"
       inkscape:export-filename="/home/rpinson/dev/augeas-talks/img/path.png"
       inkscape:export-xdpi="232.92999"
       inkscape:export-ydpi="232.92999"
       inkscape:connector-curvature="0" />
    <path
       style="fill:url(#linearGradient6443);fill-opacity:1;fill-rule:nonzero;stroke:none"
       d="m 510.13957,749.48687 c 0,14.17571 -21.12542,19.25055 -48.76806,19.25055 -27.64264,0 -32.72594,-6.99989 -32.72594,-21.1756 0,-14.17572 15.64736,-29.06762 42.9929,-25.02572 17.36534,2.56674 30.78626,12.76678 38.50109,26.93719"
       id="path6413-6"
       sodipodi:nodetypes="csssc"
       inkscape:export-filename="/home/rpinson/dev/augeas-talks/img/path.png"
       inkscape:export-xdpi="232.92999"
       inkscape:export-ydpi="232.92999"
       inkscape:connector-curvature="0" />
    <path
       style="fill:url(#linearGradient6424);fill-opacity:1;fill-rule:nonzero;stroke:none"
       d="m 487.68058,768.73743 c 0,14.17571 -21.12542,19.25055 -48.76806,19.25055 -27.64264,0 -45.49694,-7.12276 -43.63458,-21.1756 1.28337,-9.68393 10.85846,-23.10067 38.5011,-23.10067 27.6323,0 53.88692,10.84173 53.90153,25.01214"
       id="path6413"
       sodipodi:nodetypes="csssc"
       inkscape:export-filename="/home/rpinson/dev/augeas-talks/img/path.png"
       inkscape:export-xdpi="232.92999"
       inkscape:export-ydpi="232.92999"
       inkscape:connector-curvature="0" />
    <path
       style="fill:url(#linearGradient6443-3);fill-opacity:1;fill-rule:nonzero;stroke:none"
       d="m 503.0529,733.85676 c 18.79501,-1.30413 28.30935,10.47562 31.9546,26.50035 3.64526,16.02472 -3.52674,25.93939 -22.32173,27.24352 -18.795,1.30414 -33.68168,0.0995 -37.32693,-15.92527 -3.6439,-16.01873 8.89002,-36.50523 27.67606,-37.81734"
       id="path6413-7"
       sodipodi:nodetypes="csssc"
       inkscape:export-filename="/home/rpinson/dev/augeas-talks/img/path.png"
       inkscape:export-xdpi="232.92999"
       inkscape:export-ydpi="232.92999"
       inkscape:connector-curvature="0" />
    <path
       style="fill:url(#linearGradient6500);fill-opacity:1;fill-rule:nonzero;stroke:none"
       d="m 137.39697,658.9478 c 25.88979,-1.36586 38.99563,10.97143 44.0169,27.7546 5.02128,16.78317 -4.85803,27.16709 -30.74779,28.53295 -25.88978,1.36586 -46.39592,0.10421 -51.41718,-16.67901 -5.01941,-16.77689 12.24584,-38.23301 38.12328,-39.60722"
       id="path6413-7-8"
       sodipodi:nodetypes="csssc"
       inkscape:export-filename="/home/rpinson/dev/augeas-talks/img/path.png"
       inkscape:export-xdpi="232.92999"
       inkscape:export-ydpi="232.92999"
       inkscape:connector-curvature="0" />
    <path
       style="fill:url(#linearGradient6538);fill-opacity:1;fill-rule:nonzero;stroke:none"
       d="m 523.29411,540.23241 c 0,7.38372 -11.47759,10.02706 -26.49603,10.02706 -15.01845,0 -17.78024,-3.64604 -17.78024,-11.02976 0,-7.38372 8.50132,-15.14048 23.35835,-13.03517 9.43471,1.33694 16.72639,6.64984 20.91792,14.0308"
       id="path6413-6-0"
       sodipodi:nodetypes="csssc"
       inkscape:export-filename="/home/rpinson/dev/augeas-talks/img/path.png"
       inkscape:export-xdpi="232.92999"
       inkscape:export-ydpi="232.92999"
       inkscape:connector-curvature="0" />
    <path
       style="fill:url(#linearGradient6538-4);fill-opacity:1;fill-rule:nonzero;stroke:none"
       d="m 503.40187,546.615 c 0,8.35401 14.13906,11.3447 32.64004,11.3447 18.50098,0 21.90319,-4.12516 21.90319,-12.47916 0,-8.35401 -10.47264,-17.13007 -28.77478,-14.74811 -11.62247,1.51263 -20.60497,7.52369 -25.76844,15.87457"
       id="path6413-6-9"
       sodipodi:nodetypes="csssc"
       inkscape:export-filename="/home/rpinson/dev/augeas-talks/img/path.png"
       inkscape:export-xdpi="232.92999"
       inkscape:export-ydpi="232.92999"
       inkscape:connector-curvature="0" />
  </g>
</svg>
